<svg version="1.1" id="Layer_1" xmlns="http://www.w3.org/2000/svg" xmlns:xlink="http://www.w3.org/1999/xlink" x="0px" y="0px"
	 width="100%" viewBox="0 0 547 99" enable-background="new 0 0 547 99" xml:space="preserve">
<path fill="#282E3C" opacity="1.000000" stroke="none" 
	d="
M409.000000,100.000000 
	C272.666687,100.000000 136.833389,100.000000 1.000055,100.000000 
	C1.000036,67.000031 1.000036,34.000061 1.000018,1.000068 
	C183.333267,1.000045 365.666534,1.000045 547.999878,1.000023 
	C547.999878,33.999931 547.999878,66.999863 547.999939,99.999893 
	C501.833344,100.000000 455.666656,100.000000 409.000000,100.000000 
M156.737900,53.793083 
	C156.747543,63.624203 156.618378,73.458221 156.823547,83.285255 
	C156.931213,88.443260 160.631668,91.619911 165.597061,91.464294 
	C170.266037,91.317970 173.597031,88.049011 173.873672,83.186462 
	C174.005966,80.860939 173.908981,78.522163 173.909409,76.189384 
	C173.911026,67.079018 173.910065,57.968658 173.910065,48.821274 
	C178.154861,48.273129 181.804901,47.801781 185.771210,47.289597 
	C185.771210,54.941624 185.764877,62.427513 185.772827,69.913391 
	C185.782639,79.159332 189.953537,86.041916 198.234390,89.912560 
	C207.979263,94.467529 217.931747,94.448509 227.508011,89.176613 
	C234.260452,85.459274 238.275558,79.669334 238.460312,71.860992 
	C238.704636,61.535763 238.574310,51.200569 238.524948,40.870041 
	C238.505264,36.750893 236.534760,33.885117 232.482574,32.719200 
	C228.709656,31.633623 225.279938,32.629925 223.252365,35.855301 
	C222.023087,37.810814 221.633667,40.540997 221.574387,42.940632 
	C221.368683,51.267151 221.519577,59.601768 221.438370,67.932365 
	C221.398346,72.039749 219.301392,74.862457 215.456955,76.264786 
	C211.410004,77.740990 207.596420,76.846512 205.108246,73.534851 
	C203.649033,71.592712 202.987030,68.661438 202.906570,66.145035 
	C202.640457,57.821941 202.967453,49.480873 202.750900,41.154926 
	C202.545486,33.256706 195.645126,29.857874 189.014359,34.190922 
	C188.194016,34.727005 187.438797,35.362789 187.688828,35.175102 
	C182.551926,33.970058 178.358078,32.986244 173.908478,31.942429 
	C173.908478,28.689793 173.978882,25.365671 173.892654,22.045618 
	C173.748688,16.502588 170.424637,13.017202 165.398041,13.004257 
	C160.275620,12.991064 156.953400,16.340117 156.769012,21.897009 
	C156.650528,25.467457 156.746780,29.045033 156.746780,32.162331 
	C152.946854,33.111546 150.094513,33.824055 147.173813,34.553638 
	C140.631653,28.989906 138.379822,29.226414 128.047989,36.731815 
	C127.715782,36.468811 127.288727,36.233574 126.998077,35.884693 
	C124.075470,32.376625 120.425377,31.445465 116.263741,33.139225 
	C112.242302,34.775925 110.745171,37.951790 110.788277,42.284954 
	C110.920837,55.614067 110.876503,68.945503 110.816078,82.275658 
	C110.795364,86.847366 112.541534,90.014328 117.173073,91.103889 
	C123.174210,92.515663 127.723297,89.108376 127.921791,82.729752 
	C128.154922,75.238304 128.069702,67.734619 128.008804,60.237167 
	C127.966797,55.066689 130.318466,51.765141 135.172012,50.050255 
	C139.072052,48.672264 142.908646,47.114693 146.223495,45.847088 
	C149.778641,47.015934 153.002625,48.075897 156.544205,49.240284 
	C156.599289,50.273148 156.668564,51.572220 156.737900,53.793083 
M457.282257,90.899551 
	C461.101257,89.250206 462.687897,86.333992 462.649719,82.197708 
	C462.552826,71.706421 462.735565,61.211956 462.585938,50.721901 
	C462.413818,38.656246 454.859344,30.639935 442.780365,31.158855 
	C436.665100,31.421572 430.663208,34.323807 423.715576,36.285198 
	C413.457886,28.112770 402.913757,29.283131 394.458099,36.443974 
	C391.310669,33.026180 387.333069,30.679609 383.036896,33.278378 
	C380.568115,34.771748 377.807831,38.171055 377.713043,40.803608 
	C377.198120,55.107178 377.349060,69.440857 377.544708,83.760429 
	C377.610016,88.541840 381.448792,91.559036 386.276337,91.429497 
	C390.806549,91.307945 394.294189,88.238670 394.457825,83.690079 
	C394.679230,77.535706 394.508148,71.367928 394.553558,65.206253 
	C394.581726,61.378632 394.441711,57.524647 394.840179,53.731133 
	C395.358307,48.798466 398.638000,45.652729 402.757233,45.524197 
	C407.084503,45.389175 410.461090,48.584438 411.254761,53.704189 
	C411.482574,55.173801 411.462036,56.689903 411.465820,58.184921 
	C411.485565,66.012375 411.419281,73.840462 411.495331,81.667229 
	C411.557495,88.069832 414.756226,91.561928 420.224182,91.431747 
	C425.465912,91.306961 428.514252,87.856186 428.564697,81.758072 
	C428.632263,73.598030 428.503204,65.435715 428.636749,57.277298 
	C428.674133,54.995171 428.656586,52.212677 429.884186,50.573151 
	C431.498260,48.417469 434.342499,45.835934 436.613831,45.876831 
	C439.172546,45.922901 442.252899,48.218719 444.028931,50.409458 
	C445.393616,52.092823 445.416840,55.122982 445.466278,57.565750 
	C445.627930,65.556549 445.486084,73.552925 445.542328,81.546585 
	C445.595886,89.162003 448.766083,91.863190 457.282257,90.899551 
M283.442383,59.299236 
	C286.883911,59.299236 290.325470,59.299236 293.465698,59.299236 
	C293.881226,60.361649 294.105286,60.670010 294.107971,60.980305 
	C294.168915,67.978455 294.191437,74.976936 294.252350,81.975090 
	C294.286255,85.874344 295.376312,89.219879 299.237549,91.028130 
	C305.696320,94.052864 311.854401,89.878555 311.956299,82.096420 
	C312.119965,69.598915 312.011536,57.097775 312.008148,44.598171 
	C312.006104,36.931995 312.136322,29.261690 311.926208,21.600943 
	C311.755005,15.358106 307.649170,11.897930 301.877686,12.677240 
	C297.096466,13.322836 294.355865,16.611832 294.266907,22.192654 
	C294.159058,28.956562 294.241333,35.723503 294.241333,42.577362 
	C282.970551,42.577362 272.424225,42.577362 261.414001,42.577362 
	C261.414001,35.427860 261.536713,28.619190 261.376953,21.817156 
	C261.237762,15.889455 257.801636,12.457596 252.520538,12.545337 
	C247.280365,12.632397 243.761292,16.196857 243.737320,21.962048 
	C243.654144,41.961063 243.699265,61.960667 243.730774,81.959991 
	C243.732849,83.278862 243.837906,84.656799 244.224808,85.905067 
	C245.545609,90.166183 248.758911,91.968590 252.990402,91.864372 
	C257.076569,91.763725 260.057892,89.747482 260.959442,85.618782 
	C261.450043,83.371918 261.391968,80.984879 261.412231,78.659592 
	C261.466888,72.379578 261.430908,66.098778 261.430908,59.299328 
	C268.879303,59.299328 275.669373,59.299328 283.442383,59.299236 
M96.014244,7.068323 
	C90.120911,6.243591 86.072304,8.768194 83.752975,14.079470 
	C75.123146,10.211063 70.990013,11.735394 67.563393,20.365667 
	C63.575634,30.409203 59.920013,40.584351 56.088398,50.690304 
	C55.032066,53.476406 53.862103,56.219429 52.329262,60.007946 
	C51.285030,57.313705 50.675537,55.794395 50.105000,54.260597 
	C45.815819,42.729847 41.737621,31.113556 37.104958,19.722687 
	C35.971645,16.936083 33.437176,13.808605 30.800917,12.812830 
	C28.402714,11.906974 24.235785,12.776302 22.190596,14.477015 
	C18.471960,17.569307 19.103237,22.233938 20.746321,26.501251 
	C26.659201,41.857807 32.573471,57.213993 38.557049,72.543060 
	C40.489803,77.494507 42.278397,82.554001 44.773220,87.221848 
	C48.297729,93.816261 56.253029,93.646591 59.821922,87.145027 
	C60.938808,85.110367 61.859119,82.956093 62.730694,80.800476 
	C66.903328,70.480560 71.020142,60.138088 75.172798,49.810066 
	C78.668182,41.116718 82.185570,32.432213 85.715904,23.687593 
	C93.215744,27.967447 99.801979,27.109550 102.770485,21.776222 
	C105.770905,16.385530 103.301491,10.357428 96.014244,7.068323 
M491.996521,31.068739 
	C489.164917,31.994350 486.140289,32.549931 483.534698,33.908867 
	C471.482208,40.194843 466.257996,50.574253 466.772675,63.844311 
	C467.241028,75.919296 472.347107,85.666237 483.856628,90.371613 
	C496.239563,95.434013 508.396576,93.699989 519.344299,85.932434 
	C523.369568,83.076523 524.117249,78.231445 521.752258,74.889229 
	C518.952332,70.932396 515.426208,71.956985 511.492279,73.151489 
	C506.185211,74.762932 500.679840,76.454041 495.215240,76.615974 
	C489.274597,76.792000 486.322235,73.516663 485.155273,67.520493 
	C486.879242,67.520493 488.463562,67.520668 490.047882,67.520462 
	C498.205475,67.519402 506.363495,67.572319 514.520508,67.501602 
	C522.351807,67.433716 524.603271,64.783096 523.606262,56.978210 
	C521.545654,40.847015 509.358032,29.160809 491.996521,31.068739 
M370.906158,74.276039 
	C371.412231,72.346436 372.057007,70.441299 372.402557,68.483368 
	C375.286499,52.141460 367.318695,36.767147 353.676361,32.243206 
	C333.631744,25.596209 315.266113,40.646030 315.895996,63.202530 
	C316.319641,78.373756 325.111084,89.528519 338.948975,92.452644 
	C352.503265,95.316841 363.952881,89.016159 370.906158,74.276039 
M102.270851,44.636871 
	C102.222733,36.248238 99.691299,32.476555 93.996292,32.308250 
	C88.107323,32.134216 85.162018,36.226025 85.155899,44.638706 
	C85.146957,56.931778 85.114052,69.225052 85.173386,81.517845 
	C85.204231,87.909882 88.313560,91.403900 93.752022,91.431389 
	C99.099335,91.458427 102.225349,87.888809 102.253593,81.485512 
	C102.306343,69.524910 102.270149,57.563919 102.270851,44.636871 
z"/>
<path fill="#FAFAFA" opacity="1.000000" stroke="none" 
	d="
M156.737885,53.332188 
	C156.668564,51.572220 156.599289,50.273148 156.544205,49.240284 
	C153.002625,48.075897 149.778641,47.015934 146.223495,45.847088 
	C142.908646,47.114693 139.072052,48.672264 135.172012,50.050255 
	C130.318466,51.765141 127.966797,55.066689 128.008804,60.237167 
	C128.069702,67.734619 128.154922,75.238304 127.921791,82.729752 
	C127.723297,89.108376 123.174210,92.515663 117.173073,91.103889 
	C112.541534,90.014328 110.795364,86.847366 110.816078,82.275658 
	C110.876503,68.945503 110.920837,55.614067 110.788277,42.284954 
	C110.745171,37.951790 112.242302,34.775925 116.263741,33.139225 
	C120.425377,31.445465 124.075470,32.376625 126.998077,35.884693 
	C127.288727,36.233574 127.715782,36.468811 128.047989,36.731815 
	C138.379822,29.226414 140.631653,28.989906 147.173813,34.553638 
	C150.094513,33.824055 152.946854,33.111546 156.746780,32.162331 
	C156.746780,29.045033 156.650528,25.467457 156.769012,21.897009 
	C156.953400,16.340117 160.275620,12.991064 165.398041,13.004257 
	C170.424637,13.017202 173.748688,16.502588 173.892654,22.045618 
	C173.978882,25.365671 173.908478,28.689793 173.908478,31.942429 
	C178.358078,32.986244 182.551926,33.970058 187.688828,35.175102 
	C187.438797,35.362789 188.194016,34.727005 189.014359,34.190922 
	C195.645126,29.857874 202.545486,33.256706 202.750900,41.154926 
	C202.967453,49.480873 202.640457,57.821941 202.906570,66.145035 
	C202.987030,68.661438 203.649033,71.592712 205.108246,73.534851 
	C207.596420,76.846512 211.410004,77.740990 215.456955,76.264786 
	C219.301392,74.862457 221.398346,72.039749 221.438370,67.932365 
	C221.519577,59.601768 221.368683,51.267151 221.574387,42.940632 
	C221.633667,40.540997 222.023087,37.810814 223.252365,35.855301 
	C225.279938,32.629925 228.709656,31.633623 232.482574,32.719200 
	C236.534760,33.885117 238.505264,36.750893 238.524948,40.870041 
	C238.574310,51.200569 238.704636,61.535763 238.460312,71.860992 
	C238.275558,79.669334 234.260452,85.459274 227.508011,89.176613 
	C217.931747,94.448509 207.979263,94.467529 198.234390,89.912560 
	C189.953537,86.041916 185.782639,79.159332 185.772827,69.913391 
	C185.764877,62.427513 185.771210,54.941624 185.771210,47.289597 
	C181.804901,47.801781 178.154861,48.273129 173.910065,48.821274 
	C173.910065,57.968658 173.911026,67.079018 173.909409,76.189384 
	C173.908981,78.522163 174.005966,80.860939 173.873672,83.186462 
	C173.597031,88.049011 170.266037,91.317970 165.597061,91.464294 
	C160.631668,91.619911 156.931213,88.443260 156.823547,83.285255 
	C156.618378,73.458221 156.747543,63.624203 156.737885,53.332188 
z"/>
<path fill="#F7C902" opacity="1.000000" stroke="none" 
	d="
M456.925232,90.993805 
	C448.766083,91.863190 445.595886,89.162003 445.542328,81.546585 
	C445.486084,73.552925 445.627930,65.556549 445.466278,57.565750 
	C445.416840,55.122982 445.393616,52.092823 444.028931,50.409458 
	C442.252899,48.218719 439.172546,45.922901 436.613831,45.876831 
	C434.342499,45.835934 431.498260,48.417469 429.884186,50.573151 
	C428.656586,52.212677 428.674133,54.995171 428.636749,57.277298 
	C428.503204,65.435715 428.632263,73.598030 428.564697,81.758072 
	C428.514252,87.856186 425.465912,91.306961 420.224182,91.431747 
	C414.756226,91.561928 411.557495,88.069832 411.495331,81.667229 
	C411.419281,73.840462 411.485565,66.012375 411.465820,58.184921 
	C411.462036,56.689903 411.482574,55.173801 411.254761,53.704189 
	C410.461090,48.584438 407.084503,45.389175 402.757233,45.524197 
	C398.638000,45.652729 395.358307,48.798466 394.840179,53.731133 
	C394.441711,57.524647 394.581726,61.378632 394.553558,65.206253 
	C394.508148,71.367928 394.679230,77.535706 394.457825,83.690079 
	C394.294189,88.238670 390.806549,91.307945 386.276337,91.429497 
	C381.448792,91.559036 377.610016,88.541840 377.544708,83.760429 
	C377.349060,69.440857 377.198120,55.107178 377.713043,40.803608 
	C377.807831,38.171055 380.568115,34.771748 383.036896,33.278378 
	C387.333069,30.679609 391.310669,33.026180 394.458099,36.443974 
	C402.913757,29.283131 413.457886,28.112770 423.715576,36.285198 
	C430.663208,34.323807 436.665100,31.421572 442.780365,31.158855 
	C454.859344,30.639935 462.413818,38.656246 462.585938,50.721901 
	C462.735565,61.211956 462.552826,71.706421 462.649719,82.197708 
	C462.687897,86.333992 461.101257,89.250206 456.925232,90.993805 
z"/>
<path fill="#FACB01" opacity="1.000000" stroke="none" 
	d="
M282.950897,59.299282 
	C275.669373,59.299328 268.879303,59.299328 261.430908,59.299328 
	C261.430908,66.098778 261.466888,72.379578 261.412231,78.659592 
	C261.391968,80.984879 261.450043,83.371918 260.959442,85.618782 
	C260.057892,89.747482 257.076569,91.763725 252.990402,91.864372 
	C248.758911,91.968590 245.545609,90.166183 244.224808,85.905067 
	C243.837906,84.656799 243.732849,83.278862 243.730774,81.959991 
	C243.699265,61.960667 243.654144,41.961063 243.737320,21.962048 
	C243.761292,16.196857 247.280365,12.632397 252.520538,12.545337 
	C257.801636,12.457596 261.237762,15.889455 261.376953,21.817156 
	C261.536713,28.619190 261.414001,35.427860 261.414001,42.577362 
	C272.424225,42.577362 282.970551,42.577362 294.241333,42.577362 
	C294.241333,35.723503 294.159058,28.956562 294.266907,22.192654 
	C294.355865,16.611832 297.096466,13.322836 301.877686,12.677240 
	C307.649170,11.897930 311.755005,15.358106 311.926208,21.600943 
	C312.136322,29.261690 312.006104,36.931995 312.008148,44.598171 
	C312.011536,57.097775 312.119965,69.598915 311.956299,82.096420 
	C311.854401,89.878555 305.696320,94.052864 299.237549,91.028130 
	C295.376312,89.219879 294.286255,85.874344 294.252350,81.975090 
	C294.191437,74.976936 294.168915,67.978455 294.107971,60.980305 
	C294.105286,60.670010 293.881226,60.361649 293.465698,59.299236 
	C290.325470,59.299236 286.883911,59.299236 282.950897,59.299282 
z"/>
<path fill="#FAFAFA" opacity="1.000000" stroke="none" 
	d="
M96.410202,7.142511 
	C103.301491,10.357428 105.770905,16.385530 102.770485,21.776222 
	C99.801979,27.109550 93.215744,27.967447 85.715904,23.687593 
	C82.185570,32.432213 78.668182,41.116718 75.172798,49.810066 
	C71.020142,60.138088 66.903328,70.480560 62.730694,80.800476 
	C61.859119,82.956093 60.938808,85.110367 59.821922,87.145027 
	C56.253029,93.646591 48.297729,93.816261 44.773220,87.221848 
	C42.278397,82.554001 40.489803,77.494507 38.557049,72.543060 
	C32.573471,57.213993 26.659201,41.857807 20.746321,26.501251 
	C19.103237,22.233938 18.471960,17.569307 22.190596,14.477015 
	C24.235785,12.776302 28.402714,11.906974 30.800917,12.812830 
	C33.437176,13.808605 35.971645,16.936083 37.104958,19.722687 
	C41.737621,31.113556 45.815819,42.729847 50.105000,54.260597 
	C50.675537,55.794395 51.285030,57.313705 52.329262,60.007946 
	C53.862103,56.219429 55.032066,53.476406 56.088398,50.690304 
	C59.920013,40.584351 63.575634,30.409203 67.563393,20.365667 
	C70.990013,11.735394 75.123146,10.211063 83.752975,14.079470 
	C86.072304,8.768194 90.120911,6.243591 96.410202,7.142511 
z"/>
<path fill="#FACB01" opacity="1.000000" stroke="none" 
	d="
M492.440552,31.032375 
	C509.358032,29.160809 521.545654,40.847015 523.606262,56.978210 
	C524.603271,64.783096 522.351807,67.433716 514.520508,67.501602 
	C506.363495,67.572319 498.205475,67.519402 490.047882,67.520462 
	C488.463562,67.520668 486.879242,67.520493 485.155273,67.520493 
	C486.322235,73.516663 489.274597,76.792000 495.215240,76.615974 
	C500.679840,76.454041 506.185211,74.762932 511.492279,73.151489 
	C515.426208,71.956985 518.952332,70.932396 521.752258,74.889229 
	C524.117249,78.231445 523.369568,83.076523 519.344299,85.932434 
	C508.396576,93.699989 496.239563,95.434013 483.856628,90.371613 
	C472.347107,85.666237 467.241028,75.919296 466.772675,63.844311 
	C466.257996,50.574253 471.482208,40.194843 483.534698,33.908867 
	C486.140289,32.549931 489.164917,31.994350 492.440552,31.032375 
M489.774475,55.868664 
	C495.369293,55.868664 500.964081,55.868664 506.581024,55.868664 
	C506.133301,49.135990 501.643311,45.584007 494.935303,45.991482 
	C488.825226,46.362637 485.242584,49.945995 485.410400,55.663963 
	C486.550385,55.731533 487.702942,55.799847 489.774475,55.868664 
z"/>
<path fill="#F9CA01" opacity="1.000000" stroke="none" 
	d="
M370.774231,74.643982 
	C363.952881,89.016159 352.503265,95.316841 338.948975,92.452644 
	C325.111084,89.528519 316.319641,78.373756 315.895996,63.202530 
	C315.266113,40.646030 333.631744,25.596209 353.676361,32.243206 
	C367.318695,36.767147 375.286499,52.141460 372.402557,68.483368 
	C372.057007,70.441299 371.412231,72.346436 370.774231,74.643982 
M355.371338,67.443451 
	C355.088593,63.049892 355.752747,58.316425 354.323364,54.334469 
	C351.463501,46.367424 341.407654,45.005661 336.109192,51.388767 
	C332.670715,55.531139 332.037903,60.439373 332.956268,65.549438 
	C334.041504,71.588531 337.822296,75.503120 342.793945,76.080208 
	C348.758911,76.772583 352.027161,74.674042 355.371338,67.443451 
z"/>
<path fill="#FAFAFA" opacity="1.000000" stroke="none" 
	d="
M102.270905,45.119980 
	C102.270149,57.563919 102.306343,69.524910 102.253593,81.485512 
	C102.225349,87.888809 99.099335,91.458427 93.752022,91.431389 
	C88.313560,91.403900 85.204231,87.909882 85.173386,81.517845 
	C85.114052,69.225052 85.146957,56.931778 85.155899,44.638706 
	C85.162018,36.226025 88.107323,32.134216 93.996292,32.308250 
	C99.691299,32.476555 102.222733,36.248238 102.270905,45.119980 
z"/>
<path fill="#343637" opacity="1.000000" stroke="none" 
	d="
M489.314972,55.868412 
	C487.702942,55.799847 486.550385,55.731533 485.410400,55.663963 
	C485.242584,49.945995 488.825226,46.362637 494.935303,45.991482 
	C501.643311,45.584007 506.133301,49.135990 506.581024,55.868664 
	C500.964081,55.868664 495.369293,55.868664 489.314972,55.868412 
z"/>
<path fill="#2B3039" opacity="1.000000" stroke="none" 
	d="
M355.220703,67.820580 
	C352.027161,74.674042 348.758911,76.772583 342.793945,76.080208 
	C337.822296,75.503120 334.041504,71.588531 332.956268,65.549438 
	C332.037903,60.439373 332.670715,55.531139 336.109192,51.388767 
	C341.407654,45.005661 351.463501,46.367424 354.323364,54.334469 
	C355.752747,58.316425 355.088593,63.049892 355.220703,67.820580 
z"/>
</svg>