<svg version="1.1" id="Layer_1" xmlns="http://www.w3.org/2000/svg" xmlns:xlink="http://www.w3.org/1999/xlink" x="0px" y="0px"
	 width="100%" viewBox="0 0 547 99" enable-background="new 0 0 547 99" xml:space="preserve">
<path fill="#040404" opacity="1.000000" stroke="none" 
	d="
M409.000000,100.000000 
	C272.666687,100.000000 136.833389,100.000000 1.000055,100.000000 
	C1.000036,67.000031 1.000036,34.000061 1.000018,1.000068 
	C183.333267,1.000045 365.666534,1.000045 547.999878,1.000023 
	C547.999878,33.999931 547.999878,66.999863 547.999939,99.999893 
	C501.833344,100.000000 455.666656,100.000000 409.000000,100.000000 
M126.305267,88.523895 
	C126.939056,85.996010 128.024277,83.485069 128.119980,80.936981 
	C128.382339,73.951088 128.270905,66.949287 128.225128,59.954327 
	C128.194107,55.216728 130.310074,52.054924 134.744476,50.384453 
	C138.766815,48.869221 142.765030,47.289982 146.174286,45.970951 
	C149.801193,47.182556 153.014297,48.255920 156.498459,49.419838 
	C156.498459,50.961536 156.498337,52.608841 156.498474,54.256145 
	C156.499252,63.583427 156.419586,72.911659 156.530258,82.237640 
	C156.599670,88.087166 160.019257,91.607109 165.284134,91.635590 
	C170.450027,91.663536 173.968307,87.959755 174.120422,82.289345 
	C174.169540,80.458504 174.129990,78.625267 174.130035,76.793121 
	C174.130249,67.511192 174.130127,58.229256 174.130127,48.959503 
	C178.186661,48.443027 181.688828,47.997131 185.528976,47.508209 
	C185.528976,55.025795 185.502213,62.332710 185.536316,69.639343 
	C185.571991,77.278145 188.338516,83.639847 194.745285,88.040726 
	C202.336349,93.255089 210.857605,94.230629 219.596512,92.292580 
	C232.557693,89.418129 238.766891,81.350891 238.795181,68.137756 
	C238.813721,59.476749 238.859299,50.815090 238.777298,42.154812 
	C238.716904,35.775810 235.500122,32.202816 230.086563,32.219784 
	C224.710617,32.236633 221.410110,35.904362 221.361847,42.126434 
	C221.297241,50.453873 221.331863,58.782192 221.348053,67.110092 
	C221.356812,71.607071 219.447189,74.833076 215.097672,76.263390 
	C208.971649,78.277870 203.301697,74.247635 203.124283,67.497177 
	C202.896805,58.842064 203.408386,50.152550 202.826126,41.530220 
	C202.633743,38.681347 200.663162,34.665245 198.373978,33.588306 
	C195.815903,32.384861 191.961121,33.842121 188.695496,34.313419 
	C187.984406,34.416046 187.378571,35.248035 187.765854,34.954411 
	C182.739471,33.847546 178.683838,32.954453 174.129440,31.951529 
	C174.129440,28.872404 174.187775,25.579971 174.116684,22.290335 
	C173.988510,16.359127 170.789764,12.999470 165.377258,13.001701 
	C159.865540,13.003974 156.705276,16.225847 156.520355,22.199856 
	C156.414597,25.616831 156.501205,29.039761 156.501205,32.106972 
	C152.840302,33.026951 149.998947,33.740974 147.157608,34.454994 
	C147.245987,34.016838 147.334366,33.578682 147.422745,33.140526 
	C144.069519,32.444721 140.557266,30.791468 137.406509,31.314764 
	C134.066559,31.869482 131.070099,34.492275 127.768456,36.296658 
	C124.699905,32.799809 120.862663,31.003260 116.016624,33.085342 
	C111.251503,35.132656 110.508377,39.133320 110.565399,43.808361 
	C110.717728,56.298401 110.689560,68.792183 110.575272,81.283028 
	C110.539032,85.243782 111.323273,88.723396 115.084862,90.550308 
	C118.820412,92.364571 122.530533,91.993156 126.305267,88.523895 
M415.405182,31.736067 
	C407.647827,29.574682 400.553864,30.485498 394.670502,36.544876 
	C391.323151,32.775208 387.613068,30.980846 382.927399,32.946861 
	C379.187012,34.516270 377.209625,37.391453 377.209167,41.512711 
	C377.207733,55.338951 377.113831,69.166283 377.265717,82.990883 
	C377.324432,88.339973 381.125305,91.726585 386.231079,91.612320 
	C391.288116,91.499146 394.608215,88.005371 394.657013,82.509674 
	C394.729492,74.347771 394.516296,66.179825 394.766174,58.024918 
	C394.855072,55.123096 395.363953,51.948025 396.691345,49.430340 
	C399.384949,44.321583 406.444763,44.290630 409.296783,49.326260 
	C410.537811,51.517464 411.068237,54.349556 411.149628,56.915047 
	C411.408295,65.069679 411.284180,73.235970 411.345978,81.397461 
	C411.396576,88.075569 414.585876,91.745422 420.176788,91.643852 
	C425.555511,91.546135 428.655792,87.914116 428.696228,81.579475 
	C428.749298,73.251045 428.699493,64.921341 428.835388,56.594494 
	C428.867279,54.639420 428.830322,52.131458 429.946320,50.869015 
	C431.846008,48.720036 434.657013,46.001492 437.043793,46.040676 
	C439.485809,46.080772 442.391815,48.756145 444.118073,51.022011 
	C445.342651,52.629379 445.188446,55.468616 445.227814,57.765240 
	C445.376221,66.424904 445.216217,75.091133 445.445801,83.747635 
	C445.573853,88.576195 449.165771,91.618912 454.029846,91.614487 
	C458.782166,91.610161 462.591339,88.405304 462.655151,83.762054 
	C462.815277,72.106514 463.017670,60.437000 462.619720,48.793030 
	C462.308746,39.695057 456.894531,33.701431 448.014984,31.474634 
	C439.460052,29.329227 431.896423,31.490829 425.758392,37.190422 
	C422.264954,35.266014 419.234680,33.596748 415.405182,31.736067 
M312.209198,76.448975 
	C312.208954,58.802368 312.312439,41.154526 312.102081,23.510418 
	C312.068665,20.706038 311.472870,16.730453 309.625946,15.410053 
	C307.051056,13.569218 302.895111,12.748550 299.703644,13.266129 
	C295.803741,13.898601 294.057587,17.597263 294.042297,21.665461 
	C294.016266,28.589052 294.035126,35.512814 294.035126,42.527992 
	C282.915405,42.527992 272.504303,42.527992 261.623962,42.527992 
	C261.623962,35.466732 261.721161,28.670832 261.594513,21.879107 
	C261.484894,16.000170 258.149628,12.488393 252.901474,12.368711 
	C247.560730,12.246916 243.741348,16.047964 243.448120,21.780714 
	C243.431122,22.112888 243.440460,22.446503 243.440475,22.779446 
	C243.441208,42.423725 243.344147,62.069092 243.561249,81.710983 
	C243.589981,84.311745 244.625916,87.373611 246.243164,89.375458 
	C248.756546,92.486534 252.576431,92.770241 256.319824,91.314484 
	C260.067413,89.857071 261.529236,86.802979 261.563995,83.023315 
	C261.635223,75.272774 261.585358,67.521118 261.585358,59.933311 
	C272.829712,59.933311 283.213623,59.933311 294.028900,59.933311 
	C294.028900,67.478737 293.933258,74.608879 294.057098,81.735199 
	C294.170074,88.237442 297.572144,91.991798 303.071838,92.037277 
	C308.786591,92.084534 311.978790,88.558022 312.195160,81.921562 
	C312.243958,80.424789 312.206848,78.925209 312.209198,76.448975 
M96.832413,7.161537 
	C90.601959,5.907242 86.177719,8.314201 83.530754,13.953367 
	C75.537407,10.185282 71.237862,11.687078 67.785423,19.506626 
	C66.109436,23.302628 64.771690,27.248602 63.298729,31.133474 
	C59.807323,40.341930 56.326626,49.554447 52.467228,59.754776 
	C51.437363,57.144955 50.809902,55.629784 50.238083,54.093895 
	C45.950233,42.576805 41.910397,30.957870 37.228134,19.603727 
	C36.041965,16.727354 33.232002,13.404707 30.454002,12.513634 
	C22.673733,10.018029 17.292707,16.821184 20.180569,25.251890 
	C22.817965,32.951389 25.952902,40.481800 28.918283,48.067299 
	C33.882011,60.764580 38.824020,73.471046 43.910572,86.119194 
	C45.370510,89.749466 47.971649,92.030067 52.301361,91.992760 
	C56.608952,91.955643 59.058739,89.726906 60.583073,86.022881 
	C64.117264,77.435074 67.686104,68.861320 71.179176,60.256821 
	C76.085503,48.171036 80.935852,36.062523 85.829590,23.915445 
	C93.634552,28.181770 100.262596,27.104500 103.168816,21.405399 
	C105.776573,16.291569 103.516228,10.599496 96.832413,7.161537 
M467.861328,72.371895 
	C475.566589,93.182365 501.990326,100.502228 518.964722,86.528496 
	C523.095276,83.128128 524.391968,78.752296 522.096130,75.143303 
	C519.369690,70.857224 515.554810,71.299377 511.554321,73.082443 
	C510.338440,73.624367 509.115814,74.151016 507.900238,74.693550 
	C502.698334,77.015190 497.339935,77.757042 491.873016,75.871910 
	C488.255707,74.624588 485.526886,72.436554 485.337036,67.734695 
	C487.200256,67.734695 488.840179,67.738968 490.480133,67.733986 
	C498.974854,67.708176 507.469971,67.719551 515.964111,67.635971 
	C520.212830,67.594162 523.690796,66.238457 523.870056,61.264767 
	C524.458862,44.928871 511.598938,26.513268 489.474823,31.527168 
	C472.433228,35.389240 463.242645,52.727924 467.861328,72.371895 
M317.084137,51.855572 
	C316.671906,56.469543 315.608795,61.134426 315.965027,65.688286 
	C317.217010,81.694435 328.732300,92.851151 343.640594,93.100792 
	C361.810791,93.405045 374.379517,78.961288 373.040192,59.315163 
	C372.026886,44.450825 362.412720,32.958126 349.369110,31.018883 
	C334.482086,28.805576 322.869171,36.072868 317.084137,51.855572 
M102.436066,62.500233 
	C102.432045,55.503349 102.517563,48.504910 102.395882,41.510071 
	C102.297325,35.844780 99.069199,32.391705 94.045319,32.224129 
	C89.065681,32.058022 85.259674,35.413368 85.173477,40.928001 
	C84.954918,54.909565 84.957611,68.898186 85.136589,82.880592 
	C85.207863,88.448746 88.826813,91.696609 93.931801,91.606880 
	C98.855286,91.520355 102.316017,87.902748 102.403046,82.491386 
	C102.504822,76.162453 102.432732,69.830727 102.436066,62.500233 
z"/>
<path fill="#F8F8F9" opacity="1.000000" stroke="none" 
	d="
M126.032562,88.809525 
	C122.530533,91.993156 118.820412,92.364571 115.084862,90.550308 
	C111.323273,88.723396 110.539032,85.243782 110.575272,81.283028 
	C110.689560,68.792183 110.717728,56.298401 110.565399,43.808361 
	C110.508377,39.133320 111.251503,35.132656 116.016624,33.085342 
	C120.862663,31.003260 124.699905,32.799809 127.768456,36.296658 
	C131.070099,34.492275 134.066559,31.869482 137.406509,31.314764 
	C140.557266,30.791468 144.069519,32.444721 147.422745,33.140526 
	C147.334366,33.578682 147.245987,34.016838 147.157608,34.454994 
	C149.998947,33.740974 152.840302,33.026951 156.501205,32.106972 
	C156.501205,29.039761 156.414597,25.616831 156.520355,22.199856 
	C156.705276,16.225847 159.865540,13.003974 165.377258,13.001701 
	C170.789764,12.999470 173.988510,16.359127 174.116684,22.290335 
	C174.187775,25.579971 174.129440,28.872404 174.129440,31.951529 
	C178.683838,32.954453 182.739471,33.847546 187.765854,34.954411 
	C187.378571,35.248035 187.984406,34.416046 188.695496,34.313419 
	C191.961121,33.842121 195.815903,32.384861 198.373978,33.588306 
	C200.663162,34.665245 202.633743,38.681347 202.826126,41.530220 
	C203.408386,50.152550 202.896805,58.842064 203.124283,67.497177 
	C203.301697,74.247635 208.971649,78.277870 215.097672,76.263390 
	C219.447189,74.833076 221.356812,71.607071 221.348053,67.110092 
	C221.331863,58.782192 221.297241,50.453873 221.361847,42.126434 
	C221.410110,35.904362 224.710617,32.236633 230.086563,32.219784 
	C235.500122,32.202816 238.716904,35.775810 238.777298,42.154812 
	C238.859299,50.815090 238.813721,59.476749 238.795181,68.137756 
	C238.766891,81.350891 232.557693,89.418129 219.596512,92.292580 
	C210.857605,94.230629 202.336349,93.255089 194.745285,88.040726 
	C188.338516,83.639847 185.571991,77.278145 185.536316,69.639343 
	C185.502213,62.332710 185.528976,55.025795 185.528976,47.508209 
	C181.688828,47.997131 178.186661,48.443027 174.130127,48.959503 
	C174.130127,58.229256 174.130249,67.511192 174.130035,76.793121 
	C174.129990,78.625267 174.169540,80.458504 174.120422,82.289345 
	C173.968307,87.959755 170.450027,91.663536 165.284134,91.635590 
	C160.019257,91.607109 156.599670,88.087166 156.530258,82.237640 
	C156.419586,72.911659 156.499252,63.583427 156.498474,54.256145 
	C156.498337,52.608841 156.498459,50.961536 156.498459,49.419838 
	C153.014297,48.255920 149.801193,47.182556 146.174286,45.970951 
	C142.765030,47.289982 138.766815,48.869221 134.744476,50.384453 
	C130.310074,52.054924 128.194107,55.216728 128.225128,59.954327 
	C128.270905,66.949287 128.382339,73.951088 128.119980,80.936981 
	C128.024277,83.485069 126.939056,85.996010 126.032562,88.809525 
z"/>
<path fill="#F4C703" opacity="1.000000" stroke="none" 
	d="
M415.804810,31.831776 
	C419.234680,33.596748 422.264954,35.266014 425.758392,37.190422 
	C431.896423,31.490829 439.460052,29.329227 448.014984,31.474634 
	C456.894531,33.701431 462.308746,39.695057 462.619720,48.793030 
	C463.017670,60.437000 462.815277,72.106514 462.655151,83.762054 
	C462.591339,88.405304 458.782166,91.610161 454.029846,91.614487 
	C449.165771,91.618912 445.573853,88.576195 445.445801,83.747635 
	C445.216217,75.091133 445.376221,66.424904 445.227814,57.765240 
	C445.188446,55.468616 445.342651,52.629379 444.118073,51.022011 
	C442.391815,48.756145 439.485809,46.080772 437.043793,46.040676 
	C434.657013,46.001492 431.846008,48.720036 429.946320,50.869015 
	C428.830322,52.131458 428.867279,54.639420 428.835388,56.594494 
	C428.699493,64.921341 428.749298,73.251045 428.696228,81.579475 
	C428.655792,87.914116 425.555511,91.546135 420.176788,91.643852 
	C414.585876,91.745422 411.396576,88.075569 411.345978,81.397461 
	C411.284180,73.235970 411.408295,65.069679 411.149628,56.915047 
	C411.068237,54.349556 410.537811,51.517464 409.296783,49.326260 
	C406.444763,44.290630 399.384949,44.321583 396.691345,49.430340 
	C395.363953,51.948025 394.855072,55.123096 394.766174,58.024918 
	C394.516296,66.179825 394.729492,74.347771 394.657013,82.509674 
	C394.608215,88.005371 391.288116,91.499146 386.231079,91.612320 
	C381.125305,91.726585 377.324432,88.339973 377.265717,82.990883 
	C377.113831,69.166283 377.207733,55.338951 377.209167,41.512711 
	C377.209625,37.391453 379.187012,34.516270 382.927399,32.946861 
	C387.613068,30.980846 391.323151,32.775208 394.670502,36.544876 
	C400.553864,30.485498 407.647827,29.574682 415.804810,31.831776 
z"/>
<path fill="#F5C702" opacity="1.000000" stroke="none" 
	d="
M312.209259,76.937950 
	C312.206848,78.925209 312.243958,80.424789 312.195160,81.921562 
	C311.978790,88.558022 308.786591,92.084534 303.071838,92.037277 
	C297.572144,91.991798 294.170074,88.237442 294.057098,81.735199 
	C293.933258,74.608879 294.028900,67.478737 294.028900,59.933311 
	C283.213623,59.933311 272.829712,59.933311 261.585358,59.933311 
	C261.585358,67.521118 261.635223,75.272774 261.563995,83.023315 
	C261.529236,86.802979 260.067413,89.857071 256.319824,91.314484 
	C252.576431,92.770241 248.756546,92.486534 246.243164,89.375458 
	C244.625916,87.373611 243.589981,84.311745 243.561249,81.710983 
	C243.344147,62.069092 243.441208,42.423725 243.440475,22.779446 
	C243.440460,22.446503 243.431122,22.112888 243.448120,21.780714 
	C243.741348,16.047964 247.560730,12.246916 252.901474,12.368711 
	C258.149628,12.488393 261.484894,16.000170 261.594513,21.879107 
	C261.721161,28.670832 261.623962,35.466732 261.623962,42.527992 
	C272.504303,42.527992 282.915405,42.527992 294.035126,42.527992 
	C294.035126,35.512814 294.016266,28.589052 294.042297,21.665461 
	C294.057587,17.597263 295.803741,13.898601 299.703644,13.266129 
	C302.895111,12.748550 307.051056,13.569218 309.625946,15.410053 
	C311.472870,16.730453 312.068665,20.706038 312.102081,23.510418 
	C312.312439,41.154526 312.208954,58.802368 312.209259,76.937950 
z"/>
<path fill="#F8F8F8" opacity="1.000000" stroke="none" 
	d="
M97.220108,7.281536 
	C103.516228,10.599496 105.776573,16.291569 103.168816,21.405399 
	C100.262596,27.104500 93.634552,28.181770 85.829590,23.915445 
	C80.935852,36.062523 76.085503,48.171036 71.179176,60.256821 
	C67.686104,68.861320 64.117264,77.435074 60.583073,86.022881 
	C59.058739,89.726906 56.608952,91.955643 52.301361,91.992760 
	C47.971649,92.030067 45.370510,89.749466 43.910572,86.119194 
	C38.824020,73.471046 33.882011,60.764580 28.918283,48.067299 
	C25.952902,40.481800 22.817965,32.951389 20.180569,25.251890 
	C17.292707,16.821184 22.673733,10.018029 30.454002,12.513634 
	C33.232002,13.404707 36.041965,16.727354 37.228134,19.603727 
	C41.910397,30.957870 45.950233,42.576805 50.238083,54.093895 
	C50.809902,55.629784 51.437363,57.144955 52.467228,59.754776 
	C56.326626,49.554447 59.807323,40.341930 63.298729,31.133474 
	C64.771690,27.248602 66.109436,23.302628 67.785423,19.506626 
	C71.237862,11.687078 75.537407,10.185282 83.530754,13.953367 
	C86.177719,8.314201 90.601959,5.907242 97.220108,7.281536 
z"/>
<path fill="#F8C902" opacity="1.000000" stroke="none" 
	d="
M467.772278,71.974686 
	C463.242645,52.727924 472.433228,35.389240 489.474823,31.527168 
	C511.598938,26.513268 524.458862,44.928871 523.870056,61.264767 
	C523.690796,66.238457 520.212830,67.594162 515.964111,67.635971 
	C507.469971,67.719551 498.974854,67.708176 490.480133,67.733986 
	C488.840179,67.738968 487.200256,67.734695 485.337036,67.734695 
	C485.526886,72.436554 488.255707,74.624588 491.873016,75.871910 
	C497.339935,77.757042 502.698334,77.015190 507.900238,74.693550 
	C509.115814,74.151016 510.338440,73.624367 511.554321,73.082443 
	C515.554810,71.299377 519.369690,70.857224 522.096130,75.143303 
	C524.391968,78.752296 523.095276,83.128128 518.964722,86.528496 
	C501.990326,100.502228 475.566589,93.182365 467.772278,71.974686 
M503.685547,48.723770 
	C494.474976,43.370533 485.702240,46.565659 485.429840,55.365677 
	C492.460693,55.365677 499.491547,55.365677 507.631927,55.365677 
	C506.224731,52.798191 505.241638,51.004494 503.685547,48.723770 
z"/>
<path fill="#F7C902" opacity="1.000000" stroke="none" 
	d="
M317.201385,51.465736 
	C322.869171,36.072868 334.482086,28.805576 349.369110,31.018883 
	C362.412720,32.958126 372.026886,44.450825 373.040192,59.315163 
	C374.379517,78.961288 361.810791,93.405045 343.640594,93.100792 
	C328.732300,92.851151 317.217010,81.694435 315.965027,65.688286 
	C315.608795,61.134426 316.671906,56.469543 317.201385,51.465736 
M355.887024,64.123436 
	C355.513153,61.174347 355.544495,58.099121 354.674500,55.304482 
	C353.215424,50.617474 349.955536,47.817524 344.728760,47.691505 
	C339.534027,47.566257 336.200775,50.167503 334.278320,54.696636 
	C331.841339,60.438011 332.127441,66.115341 335.590424,71.394188 
	C339.718658,77.687096 348.649231,77.944641 352.922241,71.790382 
	C354.298889,69.807625 354.854218,67.254608 355.887024,64.123436 
z"/>
<path fill="#F9F9FA" opacity="1.000000" stroke="none" 
	d="
M102.436066,63.000225 
	C102.432732,69.830727 102.504822,76.162453 102.403046,82.491386 
	C102.316017,87.902748 98.855286,91.520355 93.931801,91.606880 
	C88.826813,91.696609 85.207863,88.448746 85.136589,82.880592 
	C84.957611,68.898186 84.954918,54.909565 85.173477,40.928001 
	C85.259674,35.413368 89.065681,32.058022 94.045319,32.224129 
	C99.069199,32.391705 102.297325,35.844780 102.395882,41.510071 
	C102.517563,48.504910 102.432045,55.503349 102.436066,63.000225 
z"/>
<path fill="#17160E" opacity="1.000000" stroke="none" 
	d="
M503.972046,48.967281 
	C505.241638,51.004494 506.224731,52.798191 507.631927,55.365677 
	C499.491547,55.365677 492.460693,55.365677 485.426331,55.370464 
	C485.702240,46.565659 494.474976,43.370533 503.972046,48.967281 
z"/>
<path fill="#090907" opacity="1.000000" stroke="none" 
	d="
M355.836151,64.542953 
	C354.854218,67.254608 354.298889,69.807625 352.922241,71.790382 
	C348.649231,77.944641 339.718658,77.687096 335.590424,71.394188 
	C332.127441,66.115341 331.841339,60.438011 334.278320,54.696636 
	C336.200775,50.167503 339.534027,47.566257 344.728760,47.691505 
	C349.955536,47.817524 353.215424,50.617474 354.674500,55.304482 
	C355.544495,58.099121 355.513153,61.174347 355.836151,64.542953 
z"/>
</svg>